# xmcd
#
# Track frame offsets: 
#        150
#        17076
#        33022
#        49506
#        63792
#        82351
#        99100
#        116000
#        131672
#        145906
#        164245
#        184098
#        199208
#        217143
#
# Disc length: 3102 seconds
#
# Revision: 0
# Processed by: cddbd v1.5.2PL0 Copyright (c) Steve Scherf et al.
# Submitted via: ExactAudioCopyFreeDBPlugin 1.0
#
DISCID=ca0c1c0e
DTITLE=Jill King - Somebody New
DYEAR=2008
DGENRE=Country
TTITLE0=Hurts Don't It
TTITLE1=Me And The Radio
TTITLE2=Until I Can Let You Go
TTITLE3=Troublemaker
TTITLE4=Somebody New
TTITLE5=Next Time I Need A Heartache
TTITLE6=Weight Of Love
TTITLE7=Swingin' Doors
TTITLE8=Losing At Loving
TTITLE9=Grandma Drove A Buick
TTITLE10=Country Music
TTITLE11=It Ain't A Party
TTITLE12=Hip Hopalong
TTITLE13=Can't Let Go
EXTD=
EXTT0=
EXTT1=
EXTT2=
EXTT3=
EXTT4=
EXTT5=
EXTT6=
EXTT7=
EXTT8=
EXTT9=
EXTT10=
EXTT11=
EXTT12=
EXTT13=
PLAYORDER=
